<svg xmlns="http://www.w3.org/2000/svg" viewBox="0 0 1920 1024"><path d="M1130.34,1294.43c240.54,87.55,506.52-36.48,594.07-277s-36.47-506.52-277-594.07" fill="#ffd83b" fill-rule="evenodd"/><circle cx="422" cy="423" r="134" fill="#fdceda"/><circle cx="959.5" cy="1152" r="268.5" fill="#ff6d49"/><rect x="357.47" y="522.06" width="450" height="450" transform="translate(-183.35 189.49) rotate(-16)" fill="#3b83df"/><path d="M495.5,624C610.1,624,703,716.9,703,831.5q0,6.81-.43,13.5H703v261H288V845h.43q-.42-6.69-.43-13.5C288,716.9,380.9,624,495.5,624Z" fill="none" stroke="#000" stroke-width="2"/><path d="M1677.45,252.55l-97.9,97.9m133.3-55.15-119.31,74.55m143.36-23-133.81,43.48m145,11.05L1608,413.65M1746.54,457l-139.33-19.58M1731.81,512l-130.44-52.7m104,101.68L1590.1,480.27m78.27,122.31L1574.23,498m47.54,137.18-66-124.22M1570,655.72l-36.41-135.89m-18.67,144L1510,523.23m-51.76,135.65,29.25-137.62m-82.08,120.06,59.46-127.51M1358,612.14l86.62-110.87m-126.84,70.64,110.86-86.62M1288.62,524.5l127.51-59.45m-145.06,6.62,137.61-29.25M1266.11,415l140.6,4.91m-132.49-60,135.9,36.42m-115.39-88.17L1419,374.22m-91.59-112.65,104.56,94.14M1369,224.59l80.7,115.25M1418,198.13l52.7,130.45m2.25-145.17,19.58,139.32m36.07-140.89L1516.3,322m66.79-128.94-43.48,133.8m95-109.76L1560.09,336.4" fill="none" stroke="#000" stroke-linecap="square" stroke-width="2"/></svg>