<svg width="108" height="108" viewBox="0 0 108 108" fill="none" xmlns="http://www.w3.org/2000/svg">
<path d="M8.21445 107.483C3.96516 107.479 0.521543 104.035 0.51709 99.786V8.21493C0.521543 3.96565 3.96516 0.522032 8.21445 0.517578H99.7855C104.035 0.522032 107.478 3.96565 107.483 8.21493V99.786C107.478 104.035 104.035 107.479 99.7855 107.483H8.21445Z" fill="#EDF3FD"/>
<path d="M99.7856 0.89696C103.825 0.901413 107.099 4.17501 107.103 8.21457V99.7856C107.099 103.825 103.825 107.099 99.7856 107.103H8.21457C4.17501 107.099 0.901413 103.825 0.89696 99.7856V8.21457C0.901413 4.17501 4.17501 0.901413 8.21457 0.89696H99.7856ZM99.7856 0.134766H8.21457C3.75222 0.134766 0.134766 3.75222 0.134766 8.21457V99.7856C0.134766 104.248 3.75222 107.865 8.21457 107.865H99.7856C104.248 107.865 107.865 104.248 107.865 99.7856V8.21457C107.865 3.75222 104.248 0.134766 99.7856 0.134766Z" fill="#1E6FE1"/>
<path d="M93.1873 61.1374H87.8007C87.057 61.1374 86.4541 60.5345 86.4541 59.7908V54.4043C86.4541 53.6605 87.057 53.0576 87.8007 53.0576H93.1873C93.931 53.0576 94.5339 53.6605 94.5339 54.4043V59.7908C94.5339 60.1479 94.392 60.4905 94.1395 60.743C93.8869 60.9955 93.5444 61.1374 93.1873 61.1374Z" fill="#1E6FE1" stroke="#1E6FE1"/>
<path d="M93.1873 77.8357H87.8007C87.057 77.8357 86.4541 77.2328 86.4541 76.489V71.1025C86.4541 70.3588 87.057 69.7559 87.8007 69.7559H93.1873C93.931 69.7559 94.5339 70.3588 94.5339 71.1025V76.489C94.5339 76.8462 94.392 77.1887 94.1395 77.4412C93.8869 77.6938 93.5444 77.8357 93.1873 77.8357Z" fill="white" stroke="#1E6FE1"/>
<path d="M93.1873 94.5339H87.8007C87.057 94.5339 86.4541 93.931 86.4541 93.1873V87.8007C86.4541 87.057 87.057 86.4541 87.8007 86.4541H93.1873C93.931 86.4541 94.5339 87.057 94.5339 87.8007V93.1873C94.5339 93.5444 94.392 93.8869 94.1395 94.1395C93.8869 94.392 93.5444 94.5339 93.1873 94.5339Z" fill="white" stroke="#1E6FE1"/>
<g opacity="0.25">
<path opacity="0.25" d="M90.3592 21.6814H17.641C15.4098 21.6814 13.6011 19.8726 13.6011 17.6415C13.6011 15.4103 15.4098 13.6016 17.641 13.6016H90.3592C92.5904 13.6016 94.3991 15.4103 94.3991 17.6415C94.3991 19.8726 92.5904 21.6814 90.3592 21.6814Z" fill="#1E6FE1"/>
</g>
<g opacity="0.25">
<path opacity="0.25" d="M90.3591 37.8405H58.0399C55.8087 37.8405 54 36.0318 54 33.8006C54 31.5695 55.8087 29.7607 58.0399 29.7607H90.3591C92.5903 29.7607 94.399 31.5695 94.399 33.8006C94.399 36.0318 92.5903 37.8405 90.3591 37.8405Z" fill="#1E6FE1"/>
</g>
<g opacity="0.25">
<path opacity="0.25" d="M74.469 61.2722H42.1498C39.9186 61.2722 38.1099 59.4635 38.1099 57.2323C38.1099 55.0011 39.9186 53.1924 42.1498 53.1924H74.469C76.7001 53.1924 78.5089 55.0011 78.5089 57.2323C78.5089 59.4635 76.7001 61.2722 74.469 61.2722Z" fill="#006AFF"/>
</g>
<g opacity="0.25">
<path opacity="0.25" d="M74.4689 77.9704H17.641C15.4098 77.9704 13.6011 76.1617 13.6011 73.9305C13.6011 71.6994 15.4098 69.8906 17.641 69.8906H74.4689C76.7001 69.8906 78.5088 71.6994 78.5088 73.9305C78.5088 76.1617 76.7001 77.9704 74.4689 77.9704Z" fill="#006AFF"/>
</g>
<g opacity="0.25">
<path opacity="0.25" d="M74.469 94.6687H42.1498C39.9186 94.6687 38.1099 92.8599 38.1099 90.6288C38.1099 88.3976 39.9186 86.5889 42.1498 86.5889H74.469C76.7001 86.5889 78.5089 88.3976 78.5089 90.6288C78.5089 92.8599 76.7001 94.6687 74.469 94.6687Z" fill="#006AFF"/>
</g>
<path d="M87.666 57.1808L89.449 58.9637L93.3219 55.0908" stroke="white" stroke-linecap="round"/>
</svg>
