<svg width="108" height="108" viewBox="0 0 108 108" fill="none" xmlns="http://www.w3.org/2000/svg">
<path d="M8.09892 107.618C3.83901 107.614 0.386789 104.161 0.382324 99.9014V8.10137C0.386789 3.84146 3.83901 0.38923 8.09892 0.384766H99.8989C104.159 0.38923 107.611 3.84146 107.616 8.10137V99.9014C107.611 104.161 104.159 107.614 99.8989 107.618H8.09892Z" fill="#F2F2F2"/>
<path d="M99.9 0.7641C103.95 0.768564 107.231 4.05034 107.236 8.1V99.9C107.231 103.95 103.95 107.231 99.9 107.236H8.1C4.05034 107.231 0.768564 103.95 0.7641 99.9V8.1C0.768564 4.05034 4.05034 0.768564 8.1 0.7641H99.9ZM99.9 0H8.1C3.62649 0 0 3.62649 0 8.1V99.9C0 104.374 3.62649 108 8.1 108H99.9C104.374 108 108 104.374 108 99.9V8.1C108 3.62649 104.374 0 99.9 0Z" fill="#B3B3B3"/>
<g opacity="0.25">
<path opacity="0.25" d="M90.4499 21.5991H17.55C15.3132 21.5991 13.5 19.7859 13.5 17.5491C13.5 15.3123 15.3132 13.499 17.55 13.499H90.4499C92.6867 13.499 94.4999 15.3123 94.4999 17.5491C94.4999 19.7859 92.6867 21.5991 90.4499 21.5991Z" fill="#0E0E0E"/>
</g>
<g opacity="0.25">
<path opacity="0.25" d="M90.4499 37.7991H58.05C55.8132 37.7991 54 35.9859 54 33.7492C54 31.5124 55.8132 29.6992 58.05 29.6992H90.4499C92.6867 29.6992 94.4999 31.5124 94.4999 33.7492C94.4999 35.9859 92.6867 37.7991 90.4499 37.7991Z" fill="#0E0E0E"/>
</g>
<path d="M14.9853 59.5341H93.2853C94.0309 59.5341 94.6353 58.9297 94.6353 58.1841V47.3842C94.6353 46.6386 94.0309 46.0342 93.2853 46.0342H14.9853C14.2397 46.0342 13.6353 46.6386 13.6353 47.3842V58.1841C13.6353 58.9297 14.2397 59.5341 14.9853 59.5341Z" fill="white" stroke="#B3B3B3"/>
<path d="M14.9853 94.6345H93.2853C94.0309 94.6345 94.6353 94.03 94.6353 93.2845V63.5844C94.6353 62.8388 94.0309 62.2344 93.2853 62.2344H14.9853C14.2397 62.2344 13.6353 62.8388 13.6353 63.5844V93.2845C13.6353 94.03 14.2397 94.6345 14.9853 94.6345Z" fill="white" stroke="#B3B3B3"/>
<path d="M13.5 73.0342H94.5" stroke="#B3B3B3"/>
<path d="M13.5 83.834H94.5" stroke="#B3B3B3"/>
<path d="M23.9974 52.6026C24.6274 51.9727 24.1812 50.8955 23.2903 50.8955H20.0988C19.2079 50.8955 18.7617 51.9727 19.3917 52.6026L20.9875 54.1984C21.378 54.5889 22.0111 54.5889 22.4017 54.1984L23.9974 52.6026Z" fill="#B3B3B3"/>
</svg>
