<svg width="108" height="108" viewBox="0 0 108 108" fill="none" xmlns="http://www.w3.org/2000/svg">
<path d="M8.0999 107.624C3.83999 107.619 0.387765 104.167 0.383301 99.9072V8.10723C0.387765 3.84732 3.83999 0.39509 8.0999 0.390625H99.8999C104.16 0.39509 107.612 3.84732 107.616 8.10723V99.9072C107.612 104.167 104.16 107.619 99.8999 107.624H8.0999Z" fill="#F2F2F2"/>
<path d="M99.9 0.7641C103.95 0.768564 107.231 4.05034 107.236 8.1V99.9C107.231 103.95 103.95 107.231 99.9 107.236H8.1C4.05034 107.231 0.768564 103.95 0.7641 99.9V8.1C0.768564 4.05034 4.05034 0.768564 8.1 0.7641H99.9ZM99.9 0H8.1C3.62649 0 0 3.62649 0 8.1V99.9C0 104.374 3.62649 108 8.1 108H99.9C104.374 108 108 104.374 108 99.9V8.1C108 3.62649 104.374 0 99.9 0Z" fill="#B3B3B3"/>
<g opacity="0.25">
<path opacity="0.25" d="M90.45 21.5999H17.55C15.3132 21.5999 13.5 19.7867 13.5 17.5499C13.5 15.3132 15.3132 13.5 17.55 13.5H90.45C92.6868 13.5 94.5 15.3132 94.5 17.5499C94.5 19.7867 92.6868 21.5999 90.45 21.5999Z" fill="#0E0E0E"/>
</g>
<path d="M14.9848 94.7744H93.2848C94.0303 94.7744 94.6348 94.1699 94.6348 93.4244V82.6244C94.6348 81.8788 94.0303 81.2744 93.2848 81.2744H14.9848C14.2392 81.2744 13.6348 81.8788 13.6348 82.6244V93.4244C13.6348 94.1699 14.2392 94.7744 14.9848 94.7744Z" fill="#B3B3B3" stroke="#B3B3B3"/>
<g opacity="0.25">
<path opacity="0.25" d="M90.45 54.0003H58.05C55.8132 54.0003 54 52.1871 54 49.9504C54 47.7136 55.8132 45.9004 58.05 45.9004H90.45C92.6868 45.9004 94.5 47.7136 94.5 49.9504C94.5 52.1871 92.6868 54.0003 90.45 54.0003Z" fill="#0E0E0E"/>
</g>
<g opacity="0.25">
<path opacity="0.25" d="M90.45 37.8001H17.55C15.3132 37.8001 13.5 35.9869 13.5 33.7502C13.5 31.5134 15.3132 29.7002 17.55 29.7002H90.45C92.6868 29.7002 94.5 31.5134 94.5 33.7502C94.5 35.9869 92.6868 37.8001 90.45 37.8001Z" fill="#0E0E0E"/>
</g>
</svg>
