<svg fill="#6b6b6b" xmlns="http://www.w3.org/2000/svg" viewBox="0 0 513.85 92.71"><path d="M7.22,88.12H2.78V4.71H36.34A33.69,33.69,0,0,1,51.86,8.3,28.2,28.2,0,0,1,63.19,18.49a27.65,27.65,0,0,1,4.2,15.22A28.93,28.93,0,0,1,51.57,59.6a33.27,33.27,0,0,1-15.23,3.24H7.22Zm0-29.72H36.34Q44,58.4,48.93,56a24.54,24.54,0,0,0-.12-44.46,28.44,28.44,0,0,0-12.47-2.4H7.22Z" transform="translate(0 0)"/><path d="M10,90.9H0V2H36.33A36.8,36.8,0,0,1,53.1,5.85,31.09,31.09,0,0,1,65.53,17a30.54,30.54,0,0,1,4.63,16.71A31.57,31.57,0,0,1,65.5,50.34,31.19,31.19,0,0,1,52.82,62a36.11,36.11,0,0,1-16.48,3.54H10Zm0-35.28H36.34c4.67,0,8.5-.71,11.37-2.11a21.77,21.77,0,0,0-.07-39.46,26,26,0,0,0-11.3-2.14H10Z" transform="translate(0 0)"/><path d="M136.42,7.52a34,34,0,0,1,12.51,12.53,33.65,33.65,0,0,1,4.61,17.26V55.52a33.65,33.65,0,0,1-4.61,17.26,34.42,34.42,0,0,1-59.57,0,33.54,33.54,0,0,1-4.62-17.26V37.31a33.54,33.54,0,0,1,4.62-17.26A34.11,34.11,0,0,1,101.93,7.52a34.6,34.6,0,0,1,34.52,0ZM93.21,70.57a29.71,29.71,0,0,0,10.91,10.9,30.16,30.16,0,0,0,30.09,0,29.83,29.83,0,0,0,10.9-10.9,29.37,29.37,0,0,0,4-15V37.31a29.27,29.27,0,0,0-4-15,29.68,29.68,0,0,0-10.9-10.9,30.16,30.16,0,0,0-30.09,0,29.78,29.78,0,0,0-10.91,10.9,29.23,29.23,0,0,0-4,15.05V55.52A29.45,29.45,0,0,0,93.21,70.57Z" transform="translate(0 0)"/><path d="M119.16,92.7a36.6,36.6,0,0,1-18.65-5A37.29,37.29,0,0,1,87,74.17a36.51,36.51,0,0,1-5-18.66V37.31a36.51,36.51,0,0,1,5-18.66A37.2,37.2,0,0,1,137.82,5.12h0a37.16,37.16,0,0,1,13.52,13.53,36.51,36.51,0,0,1,5,18.66V55.52a36.51,36.51,0,0,1-5,18.66,37.16,37.16,0,0,1-13.52,13.53A36.63,36.63,0,0,1,119.16,92.7Zm0-82.58a26.59,26.59,0,0,0-13.64,3.64,27.19,27.19,0,0,0-9.91,9.9,26.73,26.73,0,0,0-3.68,13.65V55.52a26.82,26.82,0,0,0,3.64,13.65h0a27.22,27.22,0,0,0,47.1,0,26.72,26.72,0,0,0,3.64-13.65V37.31a26.72,26.72,0,0,0-3.64-13.65,27.19,27.19,0,0,0-9.9-9.91A26.76,26.76,0,0,0,119.16,10.12Z" transform="translate(0 0)"/><path d="M237.28,17.41A27,27,0,0,1,241.41,32a27.48,27.48,0,0,1-20.25,26.49l21.21,29.6H237.1L216.6,59.36l-3.83.12H182.68V88.12h-4.43V4.71H210a53.23,53.23,0,0,1,9,.65,27.73,27.73,0,0,1,6.89,2.1A26.06,26.06,0,0,1,237.28,17.41ZM213.93,55a22.27,22.27,0,0,0,11.5-3.11,23.43,23.43,0,0,0,8.39-8.39A22.16,22.16,0,0,0,236.94,32a22.56,22.56,0,0,0-3.66-12.58A21.87,21.87,0,0,0,223.15,11Q218.49,9.14,210,9.14H182.68V55Z" transform="translate(0 0)"/><path d="M247.77,90.9h-12.1L215.2,62.18l-2.35.07H185.46V90.9h-10V2H210a56.2,56.2,0,0,1,9.52.7A30.46,30.46,0,0,1,227.1,5a29,29,0,0,1,12.52,11h0a29.94,29.94,0,0,1,4.56,16.1A30.3,30.3,0,0,1,225.59,60ZM185.46,52.27h28.47A19.7,19.7,0,0,0,224,49.54a20.88,20.88,0,0,0,7.41-7.41A19.31,19.31,0,0,0,234.16,32,19.67,19.67,0,0,0,231,21a19.22,19.22,0,0,0-8.88-7.35C219.38,12.53,215.3,12,210,12H185.46Z" transform="translate(0 0)"/><path d="M281.74,43.72A24.64,24.64,0,0,1,271.68,37,16.24,16.24,0,0,1,268,26a21,21,0,0,1,3.66-12.23A23.5,23.5,0,0,1,282,5.63a38.49,38.49,0,0,1,15.4-2.87,33.78,33.78,0,0,1,15.41,3.53,27.82,27.82,0,0,1,11.08,9.89A26.21,26.21,0,0,1,328,30.68h-4.44A22.53,22.53,0,0,0,320,18.22a23,23,0,0,0-9.47-8.33A29.81,29.81,0,0,0,297.27,7a35.18,35.18,0,0,0-12.11,2A21.07,21.07,0,0,0,276,15.18a15.79,15.79,0,0,0-3.54,10.55,12.47,12.47,0,0,0,3.36,9.17,21.66,21.66,0,0,0,8.75,5.21A145.21,145.21,0,0,0,299.66,44a131.82,131.82,0,0,1,15.27,4,21,21,0,0,1,9.23,6.18q3.78,4.31,3.78,12.1a20.8,20.8,0,0,1-4.14,13.13,25,25,0,0,1-11,8A41.28,41.28,0,0,1,298,90a39.45,39.45,0,0,1-17.5-3.71A26.85,26.85,0,0,1,269,75.76a29.75,29.75,0,0,1-4-15.52h4.44a25.86,25.86,0,0,0,3.41,13.42,22.91,22.91,0,0,0,9.89,8.93A34.53,34.53,0,0,0,298,85.73q11,0,18.28-5.28a16.84,16.84,0,0,0,7.25-14.38q0-6.24-3.11-9.59a17.85,17.85,0,0,0-7.86-4.85q-4.72-1.5-14.2-3.42A106.24,106.24,0,0,1,281.74,43.72Z" transform="translate(0 0)"/><path d="M298,92.7a42.18,42.18,0,0,1-18.72-4,29.79,29.79,0,0,1-12.73-11.57,32.65,32.65,0,0,1-4.4-16.93V57.42h10V60.2a23.11,23.11,0,0,0,3,12,20,20,0,0,0,8.72,7.86A32,32,0,0,0,298,83c6.72,0,12.32-1.59,16.65-4.74a14.11,14.11,0,0,0,6.11-12.14c0-3.41-.8-6-2.38-7.7a15.07,15.07,0,0,0-6.65-4.1A135.5,135.5,0,0,0,297.81,51a108.69,108.69,0,0,1-17-4.62,27.38,27.38,0,0,1-11.18-7.5,19,19,0,0,1-4.32-12.77,23.77,23.77,0,0,1,4.15-13.81A26.3,26.3,0,0,1,281,3.16,41.23,41.23,0,0,1,297.43,0a36.47,36.47,0,0,1,16.66,3.84A30.51,30.51,0,0,1,326.26,14.7a29.19,29.19,0,0,1,4.51,16v2.78h-10V30.71a19.77,19.77,0,0,0-3-11,20.17,20.17,0,0,0-8.35-7.34,27.12,27.12,0,0,0-12.08-2.65,32.72,32.72,0,0,0-11.17,1.87,18.46,18.46,0,0,0-8,5.41,13,13,0,0,0-2.88,8.76A9.75,9.75,0,0,0,277.85,33a19,19,0,0,0,7.65,4.53,144.88,144.88,0,0,0,14.79,3.75,137.37,137.37,0,0,1,15.61,4,23.92,23.92,0,0,1,10.42,7c3,3.38,4.46,8.07,4.46,13.93A23.64,23.64,0,0,1,326.07,81a27.81,27.81,0,0,1-12.16,8.85A44.11,44.11,0,0,1,298,92.7Z" transform="translate(0 0)"/><path d="M356.47,4.71H415.2V9.14H360.93V43h47.2v4.43h-47.2V83.71h54.29v4.43H356.47Z" transform="translate(0 0)"/><polygon points="417.98 90.91 353.7 90.91 353.7 1.94 417.98 1.94 417.98 11.91 363.68 11.91 363.68 40.16 410.91 40.16 410.91 50.16 363.68 50.16 363.68 80.92 417.98 80.92 417.98 90.91"/><path d="M508.45,88.12H444.33V4.71h32.48q10.43,0,17,3.71a25.85,25.85,0,0,1,10.12,9.83A27,27,0,0,1,507.53,32a26.42,26.42,0,0,1-5.75,16.72,27.18,27.18,0,0,1-14.51,9.77ZM448.76,12V55h30.8Zm0,71.67h51.3l-17.5-24.33-3.72.12H448.76Zm3.17-74.55,32.6,45.54a22.94,22.94,0,0,0,13.3-8A22.22,22.22,0,0,0,503.1,32a22.72,22.72,0,0,0-3.23-12,21.12,21.12,0,0,0-9.11-8.27Q485.48,9.15,477,9.15Z" transform="translate(0 0)"/><path d="M513.85,90.9h-72.3V2h35.26c7.4,0,13.58,1.37,18.38,4.07A28.73,28.73,0,0,1,506.3,16.89a29.91,29.91,0,0,1,4,15.17,29.28,29.28,0,0,1-6.37,18.4A30.15,30.15,0,0,1,491.66,60ZM451.53,81h43.11L481.17,62.22l-2.24.07h-27.4Zm0-28.65h22.63L451.53,20.66ZM457.27,12l28.37,39.63a20,20,0,0,0,10-6.66,19.32,19.32,0,0,0,4.64-12.85,20.22,20.22,0,0,0-2.84-10.56,18.46,18.46,0,0,0-8-7.2C486.35,12.7,482.13,12,476.93,12Z" transform="translate(0 0)"/></svg>