<svg width="108" height="108" viewBox="0 0 108 108" fill="none" xmlns="http://www.w3.org/2000/svg">
<path d="M8.09991 107.618C3.83999 107.614 0.387765 104.161 0.383301 99.9014V8.10137C0.387765 3.84146 3.83999 0.38923 8.09991 0.384766H99.9C104.16 0.38923 107.612 3.84146 107.617 8.10137V99.9014C107.612 104.161 104.16 107.614 99.9 107.618H8.09991Z" fill="#F2F2F2"/>
<path d="M99.9 0.7641C103.95 0.768564 107.231 4.05034 107.236 8.1V99.9C107.231 103.95 103.95 107.231 99.9 107.236H8.1C4.05034 107.231 0.768564 103.95 0.7641 99.9V8.1C0.768564 4.05034 4.05034 0.768564 8.1 0.7641H99.9ZM99.9 0H8.1C3.62649 0 0 3.62649 0 8.1V99.9C0 104.374 3.62649 108 8.1 108H99.9C104.374 108 108 104.374 108 99.9V8.1C108 3.62649 104.374 0 99.9 0Z" fill="#B3B3B3"/>
<g opacity="0.25">
<path opacity="0.25" d="M90.5848 23.0999H17.6848C15.448 23.0999 13.6348 21.2867 13.6348 19.0499C13.6348 16.8132 15.448 15 17.6848 15H90.5848C92.8215 15 94.6348 16.8132 94.6348 19.0499C94.6348 21.2867 92.8215 23.0999 90.5848 23.0999Z" fill="#0E0E0E"/>
</g>
<g opacity="0.25">
<path opacity="0.25" d="M90.5848 39.1H58.1848C55.948 39.1 54.1348 37.2867 54.1348 35.05C54.1348 32.8132 55.948 31 58.1848 31H90.5848C92.8215 31 94.6348 32.8132 94.6348 35.05C94.6348 37.2867 92.8215 39.1 90.5848 39.1Z" fill="#0E0E0E"/>
</g>
<path d="M90.5851 67.5003C88.3484 67.5003 86.5352 65.687 86.5352 63.4503C86.5352 61.2136 88.3484 59.4004 90.5851 59.4004C92.8219 59.4004 94.6351 61.2136 94.6351 63.4503C94.6351 64.5244 94.2084 65.5546 93.4489 66.3141C92.6894 67.0736 91.6593 67.5003 90.5851 67.5003Z" fill="white" stroke="#B3B3B3"/>
<path d="M17.6848 67.5003C15.448 67.5003 13.6348 65.687 13.6348 63.4503C13.6348 61.2136 15.448 59.4004 17.6848 59.4004C19.9215 59.4004 21.7347 61.2136 21.7347 63.4503C21.7347 64.5244 21.308 65.5546 20.5485 66.3141C19.789 67.0736 18.7589 67.5003 17.6848 67.5003Z" fill="white" stroke="#B3B3B3"/>
<path d="M35.9099 67.5003C33.6731 67.5003 31.8599 65.687 31.8599 63.4503C31.8599 61.2136 33.6731 59.4004 35.9099 59.4004C38.1466 59.4004 39.9598 61.2136 39.9598 63.4503C39.9598 64.5244 39.5331 65.5546 38.7736 66.3141C38.0141 67.0736 36.984 67.5003 35.9099 67.5003Z" fill="white" stroke="#B3B3B3"/>
<path d="M54.135 67.5003C51.8982 67.5003 50.085 65.687 50.085 63.4503C50.085 61.2136 51.8982 59.4004 54.135 59.4004C56.3718 59.4004 58.1851 61.2136 58.1851 63.4503C58.1851 64.5244 57.7584 65.5546 56.9988 66.3141C56.2393 67.0736 55.2091 67.5003 54.135 67.5003Z" fill="white" stroke="#B3B3B3"/>
<path d="M72.3601 67.5003C70.1233 67.5003 68.3101 65.687 68.3101 63.4503C68.3101 61.2136 70.1233 59.4004 72.3601 59.4004C74.5969 59.4004 76.4102 61.2136 76.4102 63.4503C76.4102 64.5244 75.9835 65.5546 75.2239 66.3141C74.4644 67.0736 73.4342 67.5003 72.3601 67.5003Z" fill="#B3B3B3" stroke="#B3B3B3"/>
<path d="M19.127 51.4355H89.1434" stroke="#B3B3B3"/>
<path d="M20.2444 53.5182C20.2444 54.288 19.4111 54.7691 18.7445 54.3843L15.1347 52.3008C14.468 51.9159 14.4679 50.9538 15.1344 50.5687L18.7442 48.4837C19.4109 48.0986 20.2444 48.5797 20.2444 49.3496V53.5182Z" fill="#B3B3B3"/>
<path d="M88.0259 53.5182C88.0259 54.288 88.8591 54.7691 89.5258 54.3843L93.1355 52.3008C93.8022 51.9159 93.8024 50.9538 93.1358 50.5687L89.526 48.4837C88.8594 48.0986 88.0259 48.5797 88.0259 49.3496V53.5182Z" fill="#B3B3B3"/>
</svg>
