<svg width="108" height="108" viewBox="0 0 108 108" fill="none" xmlns="http://www.w3.org/2000/svg">
<path d="M8.09892 107.618C3.83901 107.614 0.386789 104.161 0.382324 99.9015V8.10138C0.386789 3.84146 3.83901 0.38923 8.09892 0.384766H99.8989C104.159 0.38923 107.611 3.84146 107.616 8.10138V99.9015C107.611 104.161 104.159 107.614 99.8989 107.618H8.09892Z" fill="#F2F2F2"/>
<path d="M99.9 0.7641C103.95 0.768564 107.231 4.05034 107.236 8.1V99.9C107.231 103.95 103.95 107.231 99.9 107.236H8.1C4.05034 107.231 0.768564 103.95 0.7641 99.9V8.1C0.768564 4.05034 4.05034 0.768564 8.1 0.7641H99.9ZM99.9 0H8.1C3.62649 0 0 3.62649 0 8.1V99.9C0 104.374 3.62649 108 8.1 108H99.9C104.374 108 108 104.374 108 99.9V8.1C108 3.62649 104.374 0 99.9 0Z" fill="#B3B3B3"/>
<g opacity="0.25">
<path opacity="0.25" d="M90.4499 22.1352H17.55C15.3132 22.1352 13.5 20.322 13.5 18.0852C13.5 15.8484 15.3132 14.0352 17.55 14.0352H90.4499C92.6867 14.0352 94.4999 15.8484 94.4999 18.0852C94.4999 20.322 92.6867 22.1352 90.4499 22.1352Z" fill="#0E0E0E"/>
</g>
<g opacity="0.25">
<path opacity="0.25" d="M90.4499 38.1753H58.05C55.8132 38.1753 54 36.362 54 34.1252C54 31.8885 55.8132 30.0752 58.05 30.0752H90.4499C92.6867 30.0752 94.4999 31.8885 94.4999 34.1252C94.4999 36.362 92.6867 38.1753 90.4499 38.1753Z" fill="#0E0E0E"/>
</g>
<path d="M79.5609 81.135H14.9391C14.1443 81.135 13.5 80.4907 13.5 79.6959V71.7741C13.5 70.9793 14.1443 70.335 14.9391 70.335H79.5609C80.3557 70.335 81 70.9793 81 71.7741V79.6959C81 80.4907 80.3557 81.135 79.5609 81.135Z" fill="white" stroke="#B3B3B3"/>
<path d="M93.0609 67.635H28.4391C27.6443 67.635 27 66.9907 27 66.1959V58.2741C27 57.4793 27.6443 56.835 28.4391 56.835H93.0609C93.8557 56.835 94.5 57.4793 94.5 58.2741V66.1959C94.5 66.5776 94.3484 66.9436 94.0785 67.2135C93.8086 67.4834 93.4426 67.635 93.0609 67.635Z" fill="white" stroke="#B3B3B3"/>
<path d="M79.5609 54.135H14.9391C14.1443 54.135 13.5 53.4907 13.5 52.6959V44.7741C13.5 43.9793 14.1443 43.335 14.9391 43.335H79.5609C80.3557 43.335 81 43.9793 81 44.7741V52.6959C81 53.0775 80.8484 53.4436 80.5785 53.7135C80.3086 53.9834 79.9426 54.135 79.5609 54.135Z" fill="white" stroke="#B3B3B3"/>
<path d="M79.5609 94.635H14.9391C14.1443 94.635 13.5 93.9907 13.5 93.1959V85.2741C13.5 84.4793 14.1443 83.835 14.9391 83.835H79.5609C80.3557 83.835 81 84.4793 81 85.2741V93.1959C81 93.5775 80.8484 93.9436 80.5785 94.2135C80.3086 94.4834 79.9426 94.635 79.5609 94.635Z" fill="white" stroke="#B3B3B3"/>
<path opacity="0.8" d="M74.1353 46.4209C74.6691 47.6058 74.936 49.016 74.936 50.6514V51.5303V51.6084H74.8579H74.1938H74.1157V51.5303V50.6396C74.1157 49.012 73.8722 47.7021 73.3853 46.71L73.3462 46.6318L73.4282 46.6006L74.0376 46.3779L74.1079 46.3545L74.1353 46.4209Z" fill="#B3B3B3"/>
<path opacity="0.8" d="M71.1919 77.6396C71.1919 76.012 70.9484 74.7021 70.4614 73.71L70.4224 73.6318L70.5044 73.6006L71.1099 73.3818L71.1841 73.3545L71.2114 73.4287C71.2427 73.5173 71.2778 73.6162 71.3169 73.7256C71.356 73.835 71.3911 73.9339 71.4224 74.0225C71.4536 74.1084 71.4888 74.2061 71.5278 74.3154C71.5695 74.4248 71.606 74.5225 71.6372 74.6084C71.7362 74.8896 71.951 75.0316 72.2817 75.0342C72.5708 75.0342 72.7166 74.7139 72.7192 74.0732C72.7192 74.0316 72.7192 73.9691 72.7192 73.8857C72.7218 73.7998 72.7231 73.736 72.7231 73.6943V73.624L72.7935 73.6162L73.395 73.5654L73.4771 73.5576L73.481 73.6396C73.481 73.6761 73.4823 73.7191 73.4849 73.7686C73.4875 73.818 73.4901 73.8675 73.4927 73.917C73.4953 73.9639 73.4966 74.0055 73.4966 74.042C73.5226 74.7035 73.6815 75.0342 73.9731 75.0342C74.257 75.0342 74.3989 74.8011 74.3989 74.335C74.3989 74.223 74.3937 74.1097 74.3833 73.9951C74.3729 73.8805 74.3638 73.7946 74.356 73.7373C74.3481 73.6774 74.3351 73.5993 74.3169 73.5029L74.3052 73.4248L74.3872 73.4131L75.0474 73.335L75.1216 73.3271L75.1333 73.4014C75.1776 73.7529 75.1997 74.0563 75.1997 74.3115C75.1997 74.7751 75.0955 75.1501 74.8872 75.4365C74.6789 75.723 74.369 75.8662 73.9575 75.8662C73.6268 75.8662 73.3364 75.7347 73.0864 75.4717C72.8442 75.7347 72.5786 75.8662 72.2896 75.8662C72.1411 75.8662 72.007 75.8415 71.8872 75.792C71.9705 76.4378 72.0122 77.0576 72.0122 77.6514V78.5303V78.6084H71.9341H71.27H71.1919V78.5303V77.6396Z" fill="#B3B3B3"/>
<path opacity="0.8" d="M75.1387 89.7412C74.7793 89.9001 74.4355 89.9795 74.1074 89.9795C73.5397 89.9795 73.071 89.8415 72.7012 89.5654C72.7845 90.2842 72.8262 90.9027 72.8262 91.4209V92.2998V92.3779H72.748H72.084H72.0059V92.2998V91.4092C72.0059 89.7816 71.7624 88.4717 71.2754 87.4795L71.2363 87.4014L71.3184 87.3701L71.9277 87.1514L72.002 87.124L72.0293 87.1982L72.3105 88.0029C72.347 88.1071 72.3796 88.1995 72.4082 88.2803C72.4395 88.3584 72.4655 88.4222 72.4863 88.4717C72.5072 88.5186 72.5267 88.5589 72.5449 88.5928C72.571 88.4053 72.6204 88.2269 72.6934 88.0576C72.7689 87.8857 72.8652 87.7282 72.9824 87.585C73.1022 87.4417 73.2507 87.3285 73.4277 87.2451C73.6074 87.1592 73.8027 87.1162 74.0137 87.1162C74.4069 87.1162 74.735 87.2152 74.998 87.4131L75.0449 87.4482L75.0254 87.5029L74.8066 88.1045L74.7754 88.1865C74.7546 88.1761 74.7194 88.1579 74.6699 88.1318C74.623 88.1032 74.5853 88.0824 74.5566 88.0693C74.528 88.0563 74.4876 88.042 74.4355 88.0264C74.3861 88.0081 74.3301 87.9964 74.2676 87.9912C74.2051 87.9834 74.1348 87.9795 74.0566 87.9795C73.8379 87.9795 73.6595 88.0576 73.5215 88.2139C73.3835 88.3675 73.304 88.5589 73.2832 88.7881C73.2806 88.8167 73.278 88.8402 73.2754 88.8584C73.2728 88.874 73.2715 88.8923 73.2715 88.9131C73.2741 88.9313 73.2754 88.9443 73.2754 88.9521C73.2754 88.96 73.278 88.9704 73.2832 88.9834C73.291 88.9938 73.2949 89.0003 73.2949 89.0029C73.2975 89.0055 73.3066 89.0107 73.3223 89.0186C73.3379 89.0264 73.3483 89.0316 73.3535 89.0342C73.3587 89.0342 73.373 89.0381 73.3965 89.0459C73.4225 89.0537 73.4421 89.0602 73.4551 89.0654C73.6113 89.1201 73.8014 89.1475 74.0254 89.1475C74.3066 89.1475 74.6283 89.0745 74.9902 88.9287L75.0801 88.8936L75.0957 88.9912L75.1855 89.6592L75.1934 89.7178L75.1387 89.7412Z" fill="#B3B3B3"/>
<path opacity="0.8" d="M85.9009 64.1387C85.9009 62.5111 85.6574 61.2012 85.1704 60.209L85.1313 60.1309L85.2134 60.0996L85.8188 59.8809L85.8931 59.8535L85.9204 59.9277C85.9595 60.0319 86.0181 60.1882 86.0962 60.3965C86.1769 60.6022 86.2368 60.7572 86.2759 60.8613C86.3644 61.0957 86.4803 61.2663 86.6235 61.373C86.7668 61.4798 86.9647 61.5332 87.2173 61.5332C87.7017 61.5332 87.9438 61.2272 87.9438 60.6152C87.9438 60.4746 87.9217 60.2702 87.8774 60.002L87.8657 59.9199L87.9478 59.9121L88.6079 59.8379L88.6821 59.8301L88.6938 59.9043C88.7043 59.9876 88.7121 60.0566 88.7173 60.1113C88.7251 60.166 88.7316 60.2389 88.7368 60.3301C88.7446 60.4212 88.7485 60.5033 88.7485 60.5762C88.7485 61.1283 88.6157 61.5645 88.3501 61.8848C88.0871 62.2051 87.7121 62.3652 87.2251 62.3652C86.9985 62.3652 86.7863 62.3275 86.5884 62.252C86.6769 62.9186 86.7212 63.5514 86.7212 64.1504V65.0293V65.1074H86.6431H85.979H85.9009V65.0293V64.1387Z" fill="#B3B3B3"/>
<path d="M87.75 48.8271V54.0005" stroke="#B3B3B3"/>
<path d="M85.3365 49.3499C84.7374 49.3499 84.3801 48.6823 84.7124 48.1838L87.321 44.271C87.6179 43.8257 88.2722 43.8257 88.5691 44.271L91.1777 48.1838C91.51 48.6823 91.1527 49.3499 90.5537 49.3499H85.3365Z" fill="#B3B3B3"/>
<path d="M87.75 75.5082V70.335" stroke="#B3B3B3"/>
<path d="M90.5537 74.3906C91.1527 74.3906 91.51 75.0582 91.1777 75.5567L88.5691 79.4696C88.2722 79.9148 87.6179 79.9148 87.321 79.4696L84.7124 75.5567C84.3801 75.0582 84.7374 74.3906 85.3364 74.3906H90.5537Z" fill="#B3B3B3"/>
</svg>
