<svg xmlns="http://www.w3.org/2000/svg" viewBox="0 0 108 108"><path d="M8.1,107.62A7.74,7.74,0,0,1,.38,99.9V8.1A7.74,7.74,0,0,1,8.1.38H99.9a7.74,7.74,0,0,1,7.72,7.72V99.9a7.74,7.74,0,0,1-7.72,7.72Z" fill="#edf3fd"/><path d="M99.9.76a7.36,7.36,0,0,1,7.34,7.34V99.9a7.36,7.36,0,0,1-7.34,7.34H8.1A7.36,7.36,0,0,1,.76,99.9V8.1A7.36,7.36,0,0,1,8.1.76Zm0-.76H8.1A8.1,8.1,0,0,0,0,8.1V99.9A8.1,8.1,0,0,0,8.1,108H99.9a8.1,8.1,0,0,0,8.1-8.1V8.1A8.1,8.1,0,0,0,99.9,0Z" fill="#1e6fe1"/><g opacity="0.25"><path d="M90.58,21.73H17.68a4.05,4.05,0,1,1,0-8.1h72.9a4.05,4.05,0,0,1,0,8.1Z" fill="#1e6fe1" opacity="0.25" style="isolation:isolate"/></g><g opacity="0.25"><path d="M90.58,37.94H58.18a4.06,4.06,0,0,1,0-8.11h32.4a4.06,4.06,0,0,1,0,8.11Z" fill="#1e6fe1" opacity="0.25" style="isolation:isolate"/></g><path d="M14.85,65.07h78.3a1.34,1.34,0,0,0,1.35-1.35V47.52a1.34,1.34,0,0,0-1.35-1.35H14.85a1.34,1.34,0,0,0-1.35,1.35v16.2A1.34,1.34,0,0,0,14.85,65.07Z" fill="#fff" stroke="#1e6fe1"/><path d="M86.4,51.43v8.1" fill="none" stroke="#1e6fe1"/><path d="M83.83,51.57h5.41" fill="none" stroke="#1e6fe1"/><path d="M83.83,59.4h5.41" fill="none" stroke="#1e6fe1"/></svg>