<svg width="108" height="108" viewBox="0 0 108 108" fill="none" xmlns="http://www.w3.org/2000/svg">
<path d="M8.0999 107.617C3.83999 107.613 0.387765 104.16 0.383301 99.9004V8.10039C0.387765 3.84048 3.83999 0.388254 8.0999 0.383789H99.8999C104.16 0.388254 107.612 3.84048 107.617 8.10039V99.9004C107.612 104.16 104.16 107.613 99.8999 107.617H8.0999Z" fill="#EDF3FD"/>
<g opacity="0.25">
<path opacity="0.25" d="M90.5848 21.7348H17.6848C15.448 21.7348 13.6348 19.9215 13.6348 17.6848C13.6348 15.448 15.448 13.6348 17.6848 13.6348H90.5848C92.8215 13.6348 94.6348 15.448 94.6348 17.6848C94.6348 19.9215 92.8215 21.7348 90.5848 21.7348Z" fill="#1E6FE1"/>
</g>
<g opacity="0.25">
<path opacity="0.25" d="M90.5848 37.935H58.1848C55.948 37.935 54.1348 36.1217 54.1348 33.885C54.1348 31.6482 55.948 29.835 58.1848 29.835H90.5848C92.8215 29.835 94.6348 31.6482 94.6348 33.885C94.6348 36.1217 92.8215 37.935 90.5848 37.935Z" fill="#1E6FE1"/>
</g>
<path d="M14.85 94.7699H93.15C93.8956 94.7699 94.5 94.1655 94.5 93.4199V47.5199C94.5 46.7743 93.8956 46.1699 93.15 46.1699H14.85C14.1044 46.1699 13.5 46.7743 13.5 47.5199V93.4199C13.5 94.1655 14.1044 94.7699 14.85 94.7699Z" fill="white" stroke="#1E6FE1"/>
<path d="M86.3999 51.4346V59.5346" stroke="#1E6FE1"/>
<path d="M83.835 51.5703H89.235" stroke="#1E6FE1"/>
<path d="M83.835 59.4004H89.235" stroke="#1E6FE1"/>
<path d="M99.9 0.7641C103.95 0.768564 107.231 4.05034 107.236 8.1V99.9C107.231 103.95 103.95 107.231 99.9 107.236H8.1C4.05034 107.231 0.768564 103.95 0.7641 99.9V8.1C0.768564 4.05034 4.05034 0.768564 8.1 0.7641H99.9ZM99.9 0H8.1C3.62649 0 0 3.62649 0 8.1V99.9C0 104.374 3.62649 108 8.1 108H99.9C104.374 108 108 104.374 108 99.9V8.1C108 3.62649 104.374 0 99.9 0Z" fill="#1E6FE1"/>
</svg>
