<svg fill="#f56468" xmlns="http://www.w3.org/2000/svg" viewBox="0 0 744.66 131.91"><path d="M9,126.76H2.52V5.14H51.45a49.5,49.5,0,0,1,22.63,5.25A41.08,41.08,0,0,1,90.59,25.24a40.41,40.41,0,0,1,6.12,22.19A41.64,41.64,0,0,1,90.5,69.62,41.28,41.28,0,0,1,73.64,85.18q-9.26,4.71-22.19,4.71H9ZM9,83.43H51.45q11.17,0,18.35-3.5a35.72,35.72,0,0,0,20.44-32.5A35.5,35.5,0,0,0,69.62,15.1q-7.16-3.48-18.17-3.49H9Z"/><path d="M11.51,129.29H0V2.62H51.45A52.35,52.35,0,0,1,75.21,8.13,43.91,43.91,0,0,1,92.72,23.88a43.15,43.15,0,0,1,6.51,23.55,44.62,44.62,0,0,1-24.44,40c-6.51,3.31-14.36,5-23.34,5H11.51Zm-6.46-5H6.46V87.37h45c8.18,0,15.26-1.49,21-4.44a39.57,39.57,0,0,0,21.68-35.5,38.13,38.13,0,0,0-5.72-20.84A38.84,38.84,0,0,0,72.94,12.64a47.23,47.23,0,0,0-21.49-5H5.05ZM51.45,86h-45V9.09h45c7.69,0,14.17,1.26,19.28,3.75a38,38,0,0,1,22,34.59,38.26,38.26,0,0,1-21.9,34.79C65.8,84.69,59.26,86,51.45,86Zm-39.94-5H51.45c7,0,12.84-1.09,17.24-3.23a33.25,33.25,0,0,0,19-30.24,33,33,0,0,0-19.16-30c-4.45-2.17-10.19-3.26-17.11-3.26H11.51Z"/><path d="M197.36,9.25a50,50,0,0,1,18.26,18.26,49.11,49.11,0,0,1,6.72,25.16V79.23a49.12,49.12,0,0,1-6.72,25.17,50,50,0,0,1-18.26,18.26,50.48,50.48,0,0,1-50.33,0,49.89,49.89,0,0,1-18.26-18.26A49.13,49.13,0,0,1,122,79.23V52.67a49.12,49.12,0,0,1,6.73-25.16A49.89,49.89,0,0,1,147,9.25a50.41,50.41,0,0,1,50.33,0Zm-63,91.91a43.41,43.41,0,0,0,15.9,15.91,44,44,0,0,0,43.86,0A43.51,43.51,0,0,0,210,101.16a42.77,42.77,0,0,0,5.85-21.93V52.67A42.82,42.82,0,0,0,210,30.74a43.56,43.56,0,0,0-15.91-15.9,44,44,0,0,0-43.86,0,43.46,43.46,0,0,0-15.9,15.9,42.82,42.82,0,0,0-5.85,21.93V79.23A42.77,42.77,0,0,0,134.36,101.16Z"/><path d="M172.19,131.91a51.81,51.81,0,0,1-26.43-7.07,52.75,52.75,0,0,1-19.17-19.17,51.79,51.79,0,0,1-7.07-26.44V52.67a51.78,51.78,0,0,1,7.07-26.43A52.6,52.6,0,0,1,145.76,7.07a53,53,0,0,1,52.87,0h0A52.75,52.75,0,0,1,217.8,26.24a51.81,51.81,0,0,1,7.07,26.43V79.23a51.82,51.82,0,0,1-7.07,26.44,52.68,52.68,0,0,1-19.17,19.17A51.82,51.82,0,0,1,172.19,131.91Zm0-126.86a46.79,46.79,0,0,0-23.89,6.38A47.71,47.71,0,0,0,131,28.78a46.74,46.74,0,0,0-6.38,23.89V79.23a46.77,46.77,0,0,0,6.38,23.9,47.64,47.64,0,0,0,17.35,17.35,47.92,47.92,0,0,0,47.78,0,47.74,47.74,0,0,0,17.36-17.35,46.9,46.9,0,0,0,6.38-23.9V52.67a46.86,46.86,0,0,0-6.38-23.89,47.66,47.66,0,0,0-17.36-17.35A46.74,46.74,0,0,0,172.19,5.05Zm0,120.39a45.49,45.49,0,0,1-23.2-6.19,46.12,46.12,0,0,1-16.81-16.82A45.46,45.46,0,0,1,126,79.23V52.67a45.51,45.51,0,0,1,6.19-23.2A46.16,46.16,0,0,1,149,12.66a46.57,46.57,0,0,1,46.4,0,46.19,46.19,0,0,1,16.82,16.81,45.54,45.54,0,0,1,6.19,23.2V79.23a45.46,45.46,0,0,1-6.19,23.2,46.14,46.14,0,0,1-16.82,16.82A45.46,45.46,0,0,1,172.19,125.44Zm0-113.93A40.58,40.58,0,0,0,151.53,17a41.2,41.2,0,0,0-15,15A40.58,40.58,0,0,0,131,52.67V79.23a40.53,40.53,0,0,0,5.51,20.66h0a41.15,41.15,0,0,0,15,15,41.49,41.49,0,0,0,41.32,0,41.08,41.08,0,0,0,15-15,40.44,40.44,0,0,0,5.52-20.66V52.67A40.51,40.51,0,0,0,207.84,32a41.12,41.12,0,0,0-15-15A40.58,40.58,0,0,0,172.19,11.51Z"/><path d="M351.83,126.76H258.34V5.14h47.35q15.21,0,24.82,5.42a37.81,37.81,0,0,1,14.68,14.33A39.56,39.56,0,0,1,350.43,45,38.57,38.57,0,0,1,342,69.36,39.45,39.45,0,0,1,320.9,83.6Zm-87-111V78.54h44.91Zm0,104.5h74.79L314.08,84.83l-5.42.17H264.8Zm4.55-108.69L316.88,78A33.38,33.38,0,0,0,336.27,66.3,32.38,32.38,0,0,0,344,45a33.28,33.28,0,0,0-4.72-17.48A31,31,0,0,0,326,15.45q-7.68-3.84-20.09-3.84Z"/><path d="M356.74,129.29H255.82V2.62h49.87c10.53,0,19.29,1.93,26.06,5.74a40.44,40.44,0,0,1,15.62,15.27A42.18,42.18,0,0,1,353,45,41.18,41.18,0,0,1,344,70.91,42.21,42.21,0,0,1,325,85Zm-95.88-5h86.05L316.74,82.13l3.49-1a37.17,37.17,0,0,0,19.82-13.36A36.3,36.3,0,0,0,347.9,45,37.22,37.22,0,0,0,343,26.15a35.38,35.38,0,0,0-13.72-13.38c-6-3.39-13.94-5.1-23.59-5.1H260.86Zm83.66-1.42H262.28V82.48h46.38l6.68-.22Zm-77.19-5h67.34L312.82,87.39l-4.07.13H267.33Zm47.29-36.71H262.28V7.94Zm-47.29-5H304.8L267.33,23.66Zm48.45,4.81L264.44,9.09h41.43c8.62,0,15.76,1.38,21.22,4.11a33.63,33.63,0,0,1,14.32,13A36,36,0,0,1,346.49,45a35.09,35.09,0,0,1-8.27,22.94,36.08,36.08,0,0,1-20.83,12.56ZM274.26,14.13l43.69,61a31.09,31.09,0,0,0,16.38-10.48A29.72,29.72,0,0,0,341.44,45a31,31,0,0,0-4.36-16.17,28.67,28.67,0,0,0-12.23-11.09c-4.77-2.38-11.15-3.59-19-3.59Z"/><path d="M409.23,62a35.64,35.64,0,0,1-14.68-9.78q-5.34-6.21-5.33-16a30.48,30.48,0,0,1,5.33-17.83,34.34,34.34,0,0,1,15-11.88A56.23,56.23,0,0,1,432,2.35,49.21,49.21,0,0,1,454.48,7.5a40.44,40.44,0,0,1,16.17,14.42,38.31,38.31,0,0,1,5.94,21.14h-6.47a32.86,32.86,0,0,0-5.06-18.17,33.66,33.66,0,0,0-13.81-12.14,43.42,43.42,0,0,0-19.39-4.29,51.46,51.46,0,0,0-17.65,3,30.75,30.75,0,0,0-13.37,9.08q-5.16,6.12-5.16,15.38,0,8.39,4.9,13.37a31.47,31.47,0,0,0,12.75,7.6,209.14,209.14,0,0,0,22,5.59,195.59,195.59,0,0,1,22.28,5.68,30.72,30.72,0,0,1,13.45,9q5.51,6.28,5.51,17.65t-6,19.13a36.18,36.18,0,0,1-16,11.62,59.73,59.73,0,0,1-21.67,3.84q-14.5,0-25.51-5.41a39.11,39.11,0,0,1-16.86-15.29,43.46,43.46,0,0,1-5.86-22.63h6.47a37.59,37.59,0,0,0,5,19.57,33.42,33.42,0,0,0,14.42,13q9.43,4.64,22.36,4.63,16.08,0,26.65-7.69t10.57-21q0-9.08-4.54-14a25.9,25.9,0,0,0-11.45-7.07q-6.9-2.19-20.7-5A153.18,153.18,0,0,1,409.23,62Z"/><path d="M432.9,131.91c-10,0-19-1.91-26.62-5.68A41.77,41.77,0,0,1,388.36,110a46.17,46.17,0,0,1-6.21-23.92V83.53h11.51v2.52a35.29,35.29,0,0,0,4.63,18.28,31,31,0,0,0,13.36,12c5.91,2.9,13.06,4.38,21.25,4.38,10.13,0,18.59-2.43,25.17-7.21,6.41-4.67,9.53-10.86,9.53-18.93,0-5.37-1.3-9.5-3.87-12.26A23.65,23.65,0,0,0,453.37,76c-4.49-1.42-11.37-3.07-20.44-4.91a156.1,156.1,0,0,1-24.6-6.67h0a38.45,38.45,0,0,1-15.7-10.5c-3.94-4.58-5.94-10.51-5.94-17.63A33.15,33.15,0,0,1,392.47,17a36.92,36.92,0,0,1,16.1-12.76A59,59,0,0,1,432-.17a51.89,51.89,0,0,1,23.59,5.42,43.11,43.11,0,0,1,17.15,15.31,40.93,40.93,0,0,1,6.34,22.5v2.53H467.6V43.06a30.43,30.43,0,0,0-4.67-16.8A31.35,31.35,0,0,0,450.14,15a41.17,41.17,0,0,0-18.28-4,49.23,49.23,0,0,0-16.79,2.82,28.4,28.4,0,0,0-12.3,8.34c-3.07,3.64-4.56,8.14-4.56,13.75,0,5,1.36,8.74,4.17,11.6a29.1,29.1,0,0,0,11.75,7A207.49,207.49,0,0,0,435.87,60a198.43,198.43,0,0,1,22.57,5.76A33.28,33.28,0,0,1,473,75.48c4.07,4.64,6.13,11.14,6.13,19.31s-2.2,15.06-6.56,20.68a38.86,38.86,0,0,1-17.07,12.43A62.59,62.59,0,0,1,432.9,131.91ZM387.26,88.57a40.41,40.41,0,0,0,5.44,18.82,36.78,36.78,0,0,0,15.8,14.31c7,3.43,15.17,5.16,24.4,5.16a57.66,57.66,0,0,0,20.76-3.67,33.86,33.86,0,0,0,14.91-10.82c3.64-4.7,5.5-10.62,5.5-17.58s-1.65-12.29-4.89-16a28.33,28.33,0,0,0-12.37-8.27,194.36,194.36,0,0,0-22-5.6,212.35,212.35,0,0,1-22.3-5.67A33.91,33.91,0,0,1,398.78,51c-3.73-3.8-5.62-8.89-5.62-15.14,0-6.76,1.93-12.48,5.75-17a33.36,33.36,0,0,1,14.44-9.84,54.29,54.29,0,0,1,18.51-3.12,46.22,46.22,0,0,1,20.5,4.54,36.37,36.37,0,0,1,14.82,13,34.71,34.71,0,0,1,5.39,17H474a35.37,35.37,0,0,0-5.47-17.26A38,38,0,0,0,453.35,9.76,46.91,46.91,0,0,0,432,4.87a53.83,53.83,0,0,0-21.45,4,32,32,0,0,0-14,11,28.17,28.17,0,0,0-4.88,16.39c0,6,1.55,10.65,4.72,14.34a33.42,33.42,0,0,0,13.67,9.08h0a152,152,0,0,0,23.79,6.43c9.25,1.88,16.31,3.57,21,5.05a28.67,28.67,0,0,1,12.53,7.76c3.46,3.74,5.22,9,5.22,15.7,0,9.67-3.91,17.41-11.61,23-7.46,5.42-16.92,8.17-28.14,8.17-9,0-16.87-1.64-23.48-4.89a36,36,0,0,1-15.47-14,39.38,39.38,0,0,1-5.27-18.34Z"/><path d="M518.18,5.14H603.8v6.47H524.64V60.89h68.85v6.46H524.64v53H603.8v6.46H518.18Z"/><path d="M606.32,129.29H515.65V2.62h90.67V14.13H527.17V58.36H596V69.88H527.17v47.89h79.15Zm-85.62-5h80.58v-1.42H522.12v-58H591V63.41H522.12V9.09h79.16V7.67H520.7Z"/><path d="M732.32,23.67a39.3,39.3,0,0,1,6,21.32,38.84,38.84,0,0,1-8.3,24.37A39.06,39.06,0,0,1,708.82,83.6l30.92,43.16h-7.68L702.18,84.83l-5.6.17H652.72v41.76h-6.46V5.14h46.3a78,78,0,0,1,13.2,1,41,41,0,0,1,10,3.05A38.15,38.15,0,0,1,732.32,23.67Zm-34,54.87A32.4,32.4,0,0,0,715.11,74a34.21,34.21,0,0,0,12.23-12.23A32.36,32.36,0,0,0,731.88,45a33,33,0,0,0-5.33-18.35,32.1,32.1,0,0,0-14.76-12.23q-6.82-2.81-19.23-2.8H652.72V78.54Z"/><path d="M744.66,129.29h-13.9L700.9,87.39l-4.24.13H655.25v41.77H643.74V2.62h48.82a81.21,81.21,0,0,1,13.63,1,43,43,0,0,1,10.67,3.25,40.73,40.73,0,0,1,17.6,15.46h0A42,42,0,0,1,740.87,45a42.68,42.68,0,0,1-28,40Zm-11.3-5h1.47L704.64,82.12l3.52-1A37.55,37.55,0,0,0,735.82,45a37,37,0,0,0-5.64-20h0a35.75,35.75,0,0,0-15.44-13.56,38.43,38.43,0,0,0-9.42-2.86,76.33,76.33,0,0,0-12.76-.92H648.78V124.24h1.42V82.48h46.38l6.87-.22Zm-35-43.18H650.2v-72h42.36c8.68,0,15.28,1,20.18,3a34.9,34.9,0,0,1,15.93,13.19A35.62,35.62,0,0,1,734.41,45,35,35,0,0,1,729.51,63a36.74,36.74,0,0,1-13.12,13.12A35,35,0,0,1,698.33,81.06Zm-43.08-5h43.08a30,30,0,0,0,15.49-4.19,32,32,0,0,0,11.35-11.34A30.09,30.09,0,0,0,729.36,45a30.65,30.65,0,0,0-4.93-17A29.78,29.78,0,0,0,710.8,16.73c-4.19-1.72-10.34-2.6-18.24-2.6H655.25Z"/></svg>
