<?xml version="1.0" standalone="no"?>
<!DOCTYPE svg PUBLIC "-//W3C//DTD SVG 20010904//EN"
 "http://www.w3.org/TR/2001/REC-SVG-20010904/DTD/svg10.dtd">
<svg version="1.0" xmlns="http://www.w3.org/2000/svg"
 width="700.000000pt" height="700.000000pt" viewBox="0 0 700.000000 700.000000"
 preserveAspectRatio="xMidYMid meet">
<metadata>
Created by potrace 1.14, written by Peter Selinger 2001-2017
</metadata>
<g transform="translate(0.000000,700.000000) scale(0.100000,-0.100000)"
fill="#000000" stroke="none">
<path d="M1631 6789 c-164 -21 -348 -77 -506 -154 -464 -225 -781 -634 -897
-1158 l-23 -102 0 -1875 0 -1875 23 -102 c81 -368 264 -684 528 -914 219 -191
465 -313 769 -381 l100 -23 1875 0 1875 0 102 23 c445 98 802 337 1046 700
118 174 201 375 249 598 l23 109 0 1870 0 1870 -23 102 c-32 148 -76 274 -136
398 -228 465 -629 776 -1154 897 l-97 22 -1845 2 c-1015 1 -1874 -2 -1909 -7z
m2207 -1776 c231 -53 383 -133 528 -277 166 -167 260 -371 283 -621 29 -305
-73 -586 -294 -810 -109 -111 -254 -204 -377 -244 -21 -7 -38 -15 -38 -17 0
-3 170 -242 378 -532 208 -290 381 -533 385 -539 7 -10 -234 -13 -1192 -13
l-1201 0 0 1541 0 1540 718 -4 c686 -3 721 -4 810 -24z"/>
<path d="M2667 4818 c6 -7 258 -359 561 -783 303 -423 557 -778 564 -789 14
-18 17 -18 73 -1 242 70 451 273 538 523 25 73 31 107 35 211 8 193 -29 342
-119 481 -134 207 -343 328 -622 359 -144 16 -1042 15 -1030 -1z"/>
<path d="M2520 3942 l0 -732 520 0 c286 0 520 2 520 5 0 4 -1016 1429 -1037
1454 -1 2 -3 -325 -3 -727z"/>
<path d="M2520 2585 l0 -415 896 0 895 0 -38 53 c-21 29 -155 216 -298 415
l-260 362 -597 0 -598 0 0 -415z"/>
</g>
</svg>
